<?xml version="1.0" encoding="UTF-8" standalone="no"?>
<!DOCTYPE svg PUBLIC "-//W3C//DTD SVG 1.1//EN" "http://www.w3.org/Graphics/SVG/1.1/DTD/svg11.dtd">
<svg xmlns="http://www.w3.org/2000/svg" version="1.1" viewBox="0.00 0.00 80.00 80.00">
<path fill="#000000" d="
  M 47.00 39.76
  L 47.00 47.06
  Q 47.00 49.88 44.18 50.05
  Q 43.67 50.08 43.17 49.97
  Q 41.00 49.49 41.00 47.27
  L 41.00 39.75
  A 0.70 0.69 -80.7 0 0 40.53 39.09
  Q 36.52 37.70 36.98 33.93
  Q 37.06 33.30 36.42 33.23
  Q 32.62 32.81 28.43 33.58
  C 21.63 34.82 15.39 32.68 9.52 29.82
  A 0.92 0.92 0.0 0 1 9.00 28.99
  L 9.00 16.06
  A 1.00 0.99 -9.5 0 1 9.68 15.12
  Q 18.53 12.22 27.09 9.37
  Q 29.51 8.56 31.78 9.79
  Q 35.97 12.05 40.37 14.21
  Q 42.60 15.32 44.19 17.30
  Q 47.19 21.07 50.01 24.38
  Q 51.67 26.34 50.45 28.80
  Q 50.23 29.24 50.40 29.71
  Q 51.59 33.13 50.97 35.76
  Q 50.40 38.15 47.57 38.99
  Q 47.00 39.16 47.00 39.76
  Z
  M 26.16 24.38
  C 25.38 21.13 27.36 17.23 31.09 18.24
  Q 34.87 19.26 37.86 20.16
  A 1.43 1.39 76.3 0 1 38.48 20.55
  L 45.62 28.42
  A 1.68 1.67 -22.6 0 0 46.97 28.97
  Q 48.02 28.90 48.49 28.29
  Q 49.54 26.93 48.43 25.62
  Q 45.77 22.50 43.08 19.09
  Q 41.41 16.98 39.06 15.79
  Q 34.43 13.47 30.37 11.33
  A 2.79 2.79 0.0 0 0 28.19 11.14
  L 11.28 16.67
  A 0.40 0.40 0.0 0 0 11.00 17.05
  L 11.00 27.75
  Q 11.00 28.28 11.48 28.50
  C 17.82 31.41 22.84 32.73 29.63 31.39
  C 33.37 30.65 37.01 31.25 40.68 31.96
  A 1.90 1.89 -86.2 0 0 42.93 29.99
  Q 42.86 28.73 41.70 28.09
  Q 34.92 24.31 27.11 25.06
  A 0.89 0.89 0.0 0 1 26.16 24.38
  Z
  M 38.84 24.56
  Q 39.42 24.78 39.08 24.26
  C 36.97 21.09 34.24 21.38 31.01 20.26
  C 29.43 19.72 28.00 20.83 27.96 22.45
  Q 27.94 23.08 28.57 23.04
  Q 33.81 22.66 38.84 24.56
  Z
  M 45.75 36.96
  Q 47.46 37.39 48.66 36.02
  Q 49.01 35.62 49.00 35.10
  L 48.99 31.30
  Q 48.98 30.87 48.55 30.88
  L 46.03 30.95
  Q 45.72 30.95 45.82 31.25
  Q 46.25 32.54 45.40 33.37
  Q 44.85 33.90 43.67 33.88
  Q 41.66 33.86 39.66 33.85
  Q 38.61 33.84 38.96 34.83
  Q 39.13 35.32 39.30 35.80
  A 1.68 1.67 87.3 0 0 40.47 36.87
  Q 41.42 37.10 42.39 36.98
  A 0.54 0.54 0.0 0 1 43.00 37.51
  L 43.01 47.50
  Q 43.01 47.99 43.50 47.99
  L 44.51 47.98
  Q 45.00 47.97 45.00 47.49
  L 45.00 37.54
  Q 45.00 36.77 45.75 36.96
  Z"
/>
<path fill="#000000" d="
  M 38.08 59.37
  Q 37.70 55.42 41.57 54.10
  Q 49.20 51.51 56.20 49.20
  A 5.44 5.43 -48.0 0 1 59.04 49.05
  L 69.96 51.41
  Q 71.00 51.63 71.00 52.70
  L 71.00 66.52
  A 0.99 0.99 0.0 0 1 69.76 67.48
  C 66.99 66.76 62.15 64.68 59.41 65.37
  Q 50.32 67.67 41.72 69.76
  C 40.42 70.07 39.06 70.07 37.84 69.49
  Q 30.09 65.83 22.32 62.08
  A 3.56 3.46 -8.9 0 1 21.36 61.40
  Q 18.22 58.22 19.38 56.33
  Q 21.39 53.03 24.90 54.47
  Q 31.42 57.15 37.55 59.76
  Q 38.14 60.02 38.08 59.37
  Z
  M 45.98 61.11
  Q 46.24 61.83 45.57 62.19
  Q 42.57 63.77 40.13 62.22
  C 39.49 61.82 38.99 61.82 38.26 61.92
  Q 37.70 61.99 37.18 61.77
  L 24.05 56.23
  Q 22.26 55.48 21.21 57.12
  Q 21.03 57.40 21.03 57.74
  Q 21.04 59.31 22.46 59.99
  L 38.56 67.61
  A 3.66 3.60 -38.6 0 0 40.94 67.86
  Q 50.12 65.68 59.31 63.35
  C 62.01 62.67 65.73 64.28 68.37 65.01
  Q 69.00 65.18 69.00 64.52
  L 69.00 53.80
  A 0.68 0.68 0.0 0 0 68.47 53.14
  L 58.51 50.99
  A 3.12 3.09 -47.8 0 0 56.87 51.08
  Q 49.49 53.56 41.88 56.06
  A 2.69 2.62 -14.2 0 0 40.06 59.02
  Q 40.10 59.25 40.23 59.46
  Q 41.46 61.35 43.63 60.77
  L 44.76 60.47
  Q 45.67 60.23 45.98 61.11
  Z"
/>
<circle fill="#000000" cx="54.00" cy="57.98" r="0.98"/>
<path fill="#000000" d="
  M 50.06 59.04
  Q 50.10 57.83 51.19 58.03
  A 0.86 0.86 0.0 0 1 51.89 58.81
  Q 51.98 59.95 50.98 59.97
  A 0.91 0.91 0.0 0 1 50.06 59.04
  Z"
/>
<ellipse fill="#000000" cx="0.00" cy="0.00" transform="translate(47.99,59.99) rotate(71.8)" rx="1.02" ry="0.92"/>
</svg>
