<?xml version="1.0" encoding="UTF-8" standalone="no"?>
<!DOCTYPE svg PUBLIC "-//W3C//DTD SVG 1.1//EN" "http://www.w3.org/Graphics/SVG/1.1/DTD/svg11.dtd">
<svg xmlns="http://www.w3.org/2000/svg" version="1.1" viewBox="0.00 0.00 100.00 100.00">
<path fill="#000000" d="
  M 18.03 74.93
  L 17.99 77.09
  A 0.91 0.91 0.0 0 1 17.08 77.98
  L 4.90 78.01
  A 0.91 0.91 0.0 0 1 3.99 77.10
  L 4.04 22.92
  A 0.91 0.91 0.0 0 1 4.95 22.01
  L 17.10 21.99
  A 0.91 0.91 0.0 0 1 18.01 22.91
  L 17.99 25.06
  A 0.91 0.91 0.0 0 1 17.08 25.97
  L 8.90 26.01
  A 0.91 0.91 0.0 0 0 8.00 26.92
  L 8.01 73.04
  A 0.91 0.91 0.0 0 0 8.91 73.95
  L 17.13 74.00
  A 0.91 0.91 0.0 0 1 18.03 74.93
  Z"
/>
<path fill="#000000" d="
  M 92.00 73.08
  L 92.04 26.88
  A 0.89 0.89 0.0 0 0 91.15 25.99
  L 82.91 25.96
  A 0.89 0.89 0.0 0 1 82.03 25.07
  L 82.04 22.90
  A 0.89 0.89 0.0 0 1 82.93 22.02
  L 95.10 21.99
  A 0.89 0.89 0.0 0 1 95.99 22.88
  L 96.01 77.16
  A 0.89 0.89 0.0 0 1 95.11 78.05
  L 82.89 77.88
  A 0.89 0.89 0.0 0 1 82.01 76.98
  L 82.03 74.91
  A 0.89 0.89 0.0 0 1 82.91 74.03
  L 91.12 73.97
  A 0.89 0.89 0.0 0 0 92.00 73.08
  Z"
/>
<rect fill="#000000" x="22.02" y="36.00" width="55.98" height="3.98" rx="1.01"/>
<rect fill="#000000" x="22.00" y="48.02" width="48.00" height="3.94" rx="1.10"/>
<rect fill="#000000" x="22.03" y="60.00" width="55.98" height="3.98" rx="0.89"/>
</svg>
