<svg width="77" height="79" viewBox="0 0 77 79" fill="none" xmlns="http://www.w3.org/2000/svg">
<path fill-rule="evenodd" clip-rule="evenodd" d="M38.0486 0.0738324C35.103 0.465178 28.6441 1.89925 26.4672 2.64507C21.5666 4.32398 17.534 7.22446 16.561 9.76983C16.0745 11.0422 15.9692 22.9178 16.4326 24.25C16.846 25.4382 18.6405 27.4959 20.2347 28.6091C22.1091 29.9186 26.1674 31.6703 29.1998 32.4789C37.0582 34.5744 48.737 35.0501 57.062 33.6141C58.1185 33.432 58.1718 33.4657 58.1718 34.3153C58.1718 37.894 51.6963 41.6086 42.4168 43.3528C33.1291 45.0987 21.2414 44.5711 13.0427 42.0491C6.14228 39.9264 1.95431 36.4117 2.66069 33.3356C3.20076 30.9837 7.5367 27.9661 12.6921 26.3545C14.9192 25.6581 14.9976 25.6006 14.8136 24.7985C14.7082 24.3405 14.5715 23.91 14.5094 23.8424C14.2744 23.5856 9.0986 25.5194 6.82824 26.7122C4.04149 28.1767 2.1511 29.8565 1.34351 31.5869C0.822384 32.703 0.761719 33.509 0.761719 39.3271C0.761719 45.1983 0.818833 45.9438 1.35772 47.0984C2.63524 49.8352 7.50266 52.902 12.9688 54.414L16.15 55.294V61.5517C16.15 68.7925 16.237 69.1622 18.4789 71.444C21.2589 74.2736 26.5533 76.5001 33.7577 77.8695C38.2499 78.723 49.0877 79.0503 53.7328 78.4724C60.1074 77.6796 65.5025 76.1718 69.6328 74.0291C72.3393 72.6251 74.8417 70.0765 75.3051 68.2514C75.483 67.5516 75.6259 64.4357 75.6232 61.3201C75.6191 56.4968 75.5371 55.4641 75.0672 54.3334C73.8805 51.4773 70.5771 49.0302 65.3311 47.1214C61.9087 45.8758 61.5406 45.8655 61.3397 47.0085C61.2536 47.4975 61.2047 47.9041 61.2311 47.9118C65.9035 49.276 69.5461 50.908 71.437 52.4844C72.7829 53.6064 73.5576 55.0932 73.5588 56.5567C73.5612 59.1428 69.6733 62.1461 63.8625 64.0469C54.7798 67.0182 39.926 67.3119 30.1116 64.7148C22.9519 62.8198 17.9255 59.4656 17.9255 56.5826C17.9255 55.9124 18.0575 55.8264 19.0353 55.86C21.0935 55.9312 21.7519 56.2485 22.2934 57.4315C23.8198 60.7654 31.395 62.8373 43.2576 63.1662C60.6981 63.6494 72.1227 59.8977 69.0116 54.7086C68.0596 53.1206 63.1919 51.1092 58.6896 50.4436C57.9164 50.3291 57.284 50.1373 57.284 50.0167C57.284 49.8964 57.6953 49.3701 58.1981 48.8478C60.0041 46.9713 60.0894 46.5664 60.1586 39.5153L60.2219 33.0733L62.3079 32.4944C69.3877 30.5293 73.9619 27.5172 75.1861 24.0138C75.5978 22.8359 75.6626 21.5933 75.5812 16.4635L75.4835 10.3232L74.6369 8.98908C72.7817 6.06531 68.5488 3.52964 62.9525 1.98916C56.978 0.344864 55.1663 0.122993 46.9265 0.0272589C42.6133 -0.0228721 38.6183 -0.0018494 38.0486 0.0738324ZM53.141 2.13988C65.0104 3.48727 73.56 7.52396 73.56 11.7809C73.56 17.1142 62.5237 21.6085 48.2582 22.0846C41.8324 22.299 36.9735 21.8922 31.812 20.7075C20.583 18.1307 15.7013 13.7079 19.1048 9.1951C20.7827 6.97025 26.7649 4.17552 32.1724 3.09011C38.1543 1.88987 47.2896 1.47589 53.141 2.13988ZM38.6405 5.26612C36.2299 5.46406 31.1364 6.37288 28.7322 7.03397C24.1542 8.29274 22.0685 9.86459 22.0685 12.0558C22.0685 14.7978 26.221 16.8619 34.4392 18.2061C39.4289 19.0218 52.4589 19.004 57.4319 18.1744C64.0669 17.0673 68.1738 15.3189 69.1652 13.1787C70.8745 9.48942 65.343 6.6921 53.7328 5.37414C51.1355 5.0795 41.7359 5.01223 38.6405 5.26612ZM57.284 7.79175C62.6802 8.687 66.2032 9.95289 67.4319 11.4377C67.9466 12.0594 67.935 12.104 67.0502 12.9177C63.1286 16.5239 44.8739 18.0884 32.7219 15.859C27.5808 14.9162 23.4854 13.0002 23.9264 11.7447C24.5496 9.96938 30.4513 8.12618 38.0987 7.31858C42.1126 6.89489 53.5828 7.17757 57.284 7.79175ZM6.38435 11.3507C6.38435 12.4559 6.35624 12.4827 5.20064 12.4827C4.08795 12.4827 4.01693 12.54 4.01693 13.4336C4.01693 14.2988 4.11665 14.3932 5.12666 14.4847C6.17602 14.5795 6.24142 14.651 6.32812 15.7978C6.41187 16.9017 6.49828 17.0107 7.28989 17.0107C8.10754 17.0107 8.15992 16.9331 8.15992 15.717C8.15992 14.454 8.18448 14.4233 9.19567 14.4233C10.1491 14.4233 10.2314 14.3463 10.2314 13.453C10.2314 12.5597 10.1491 12.4827 9.19567 12.4827C8.20934 12.4827 8.15992 12.4287 8.15992 11.3507C8.15992 10.3087 8.08949 10.2187 7.27214 10.2187C6.45478 10.2187 6.38435 10.3087 6.38435 11.3507ZM19.1847 17.5156C23.4638 21.4507 34.3232 24.1261 46.018 24.1261C57.2322 24.1261 67.6924 21.5018 72.5207 17.4771L73.56 16.6106V19.9969C73.56 22.9834 73.4804 23.5135 72.8862 24.4825C72.2576 25.5078 69.6757 27.6838 69.0877 27.6838C68.9432 27.6838 68.8252 27.0288 68.8252 26.2283C68.8252 24.8269 68.7923 24.7729 67.9374 24.7729H67.0496V26.8241V28.8756L64.4602 29.7349C63.0362 30.2078 61.4379 30.6855 60.9091 30.7967L59.9473 30.9989V29.1796C59.9473 27.3739 59.9408 27.3603 59.0595 27.3603H58.1718V29.4202V31.4801L55.5623 31.8459C54.1273 32.0471 52.5293 32.2117 52.0111 32.2117H51.0695V30.4329C51.0695 28.6722 51.0606 28.654 50.1817 28.654H49.2939V30.605V32.5555L45.8168 32.4647L42.3396 32.3734L42.2508 30.5137C42.1638 28.6919 42.1443 28.654 41.2891 28.654C40.4255 28.654 40.4161 28.6738 40.4161 30.4775V32.3007L37.9747 32.0772C36.632 31.9543 35.0672 31.747 34.4975 31.6166L33.4618 31.3789L33.3736 29.3698C33.2866 27.3817 33.2762 27.3603 32.4118 27.3603C31.5477 27.3603 31.5382 27.3804 31.5382 29.1796V30.9989L30.5765 30.7967C30.0476 30.6855 28.4496 30.2078 27.0253 29.7349L24.436 28.8756V26.8241V24.7729H23.5482C22.6932 24.7729 22.6604 24.8269 22.6604 26.2283C22.6604 27.0288 22.5506 27.6838 22.4165 27.6838C21.9647 27.6838 19.454 25.5747 18.7607 24.6128C18.157 23.7748 18.0614 23.2363 17.9735 20.1732C17.9181 18.2559 17.9655 16.6873 18.0785 16.6873C18.1916 16.6873 18.6893 17.0599 19.1847 17.5156ZM13.6112 29.1217C8.9246 30.4458 6.68028 32.1209 6.68028 34.2943C6.68028 38.3103 16.2314 41.0316 30.3545 41.0393C39.2794 41.0442 46.6119 39.9594 50.7253 38.0253C52.6932 37.1 53.0081 36.6776 52.2718 35.9496C51.7262 35.4098 51.6167 35.4211 49.8313 36.2015C47.5118 37.2155 43.0948 38.2087 38.6873 38.7078C33.6088 39.2825 21.9703 38.9306 17.5263 38.0674C11.7182 36.9396 8.0377 35.163 8.54078 33.7299C8.90122 32.7033 15.2181 30.2815 17.5556 30.2734C18.225 30.2712 18.3816 29.81 18.0418 28.8423C17.7998 28.1527 16.822 28.2145 13.6112 29.1217ZM72.6722 37.2248C72.6722 38.33 72.6441 38.3568 71.4885 38.3568C70.3329 38.3568 70.3048 38.3837 70.3048 39.4888C70.3048 40.594 70.3329 40.6208 71.4885 40.6208C72.6441 40.6208 72.6722 40.6477 72.6722 41.7528C72.6722 42.7949 72.7427 42.8848 73.56 42.8848C74.3774 42.8848 74.4478 42.7949 74.4478 41.7528C74.4478 40.6748 74.4972 40.6208 75.4835 40.6208C76.4699 40.6208 76.5193 40.5668 76.5193 39.4888C76.5193 38.4108 76.4699 38.3568 75.4835 38.3568C74.4972 38.3568 74.4478 38.3028 74.4478 37.2248C74.4478 36.1828 74.3774 36.0928 73.56 36.0928C72.7427 36.0928 72.6722 36.1828 72.6722 37.2248ZM3.92904 39.8404C6.88891 42.3078 13.4777 44.6484 20.4069 45.6947C25.3459 46.4402 35.7259 46.4289 40.564 45.6731C47.4204 44.6015 53.1735 42.6238 56.2204 40.2912C57.1455 39.5829 57.9628 39.0037 58.0368 39.0037C58.1111 39.0037 58.1718 40.5037 58.1718 42.3369C58.1718 45.3907 58.1093 45.7626 57.4266 46.7737C56.6264 47.9594 54.0297 50.039 53.6609 49.79C53.5378 49.7065 53.4369 48.9924 53.4369 48.2023C53.4369 46.8267 53.3999 46.7659 52.5627 46.7659C51.6898 46.7659 51.6883 46.7695 51.601 48.9351L51.5134 51.1047L48.9773 51.9863C47.5826 52.4715 46.0511 52.9143 45.5741 52.9705C44.723 53.0708 44.7053 53.0414 44.6177 51.3747C44.531 49.7324 44.4996 49.6768 43.6559 49.6768C42.7873 49.6768 42.7835 49.6852 42.7835 51.6112C42.7835 53.3528 42.7172 53.5621 42.1177 53.7102C41.3891 53.8907 36.6658 54.5281 36.0588 54.5281C35.7984 54.5281 35.6812 53.9764 35.6812 52.7493C35.6812 50.9886 35.6723 50.9705 34.7934 50.9705C33.9166 50.9705 33.9057 50.9918 33.9057 52.7176V54.4648L32.1301 54.6899C31.1535 54.8137 29.5555 54.8137 28.579 54.6899L26.8034 54.4648V52.7176C26.8034 50.9918 26.7924 50.9705 25.9156 50.9705C25.0367 50.9705 25.0278 50.9886 25.0278 52.7493C25.0278 53.9764 24.9106 54.5281 24.6502 54.5281C24.0433 54.5281 19.32 53.8907 18.5914 53.7102C17.9918 53.5621 17.9255 53.3528 17.9255 51.6112C17.9255 49.6774 17.9252 49.6768 17.0378 49.6768C16.1586 49.6768 16.15 49.6939 16.15 51.4617C16.15 53.2425 16.1482 53.2464 15.3362 53.0436C13.6793 52.6306 11.2346 51.845 10.1574 51.3796L9.0477 50.9003V48.8329V46.7659H8.15992C7.30498 46.7659 7.27214 46.8199 7.27214 48.2213C7.27214 50.0112 6.9114 50.0775 5.15299 48.612C2.89832 46.7326 2.53729 45.8458 2.53729 42.1901C2.53729 40.4374 2.62459 39.0037 2.73142 39.0037C2.83795 39.0037 3.37713 39.3802 3.92904 39.8404ZM59.3534 52.5873C64.8047 53.7225 67.6415 55.0647 67.6415 56.5091C67.6415 57.4778 64.4058 58.9804 60.4134 59.8663C47.9031 62.6426 27.1887 60.9689 24.1252 56.9341C23.7322 56.417 23.9385 56.3963 27.4003 56.6039C31.3885 56.8436 37.9818 56.427 42.4876 55.6508C45.7774 55.0841 51.3613 53.4211 52.8451 52.5662C54.1883 51.792 55.5569 51.7965 59.3534 52.5873ZM6.38435 61.7858C6.38435 62.8376 6.32398 62.9036 5.27462 62.9987C4.31818 63.085 4.15217 63.2189 4.07315 63.9677C3.98911 64.7617 4.07818 64.8451 5.1089 64.938C6.17868 65.0343 6.24112 65.1016 6.32812 66.2523C6.41128 67.3497 6.50124 67.4652 7.27214 67.4652C8.04303 67.4652 8.13299 67.3497 8.21615 66.2523C8.29989 65.1449 8.39163 65.0308 9.26965 64.9383C10.1154 64.849 10.2314 64.7222 10.2314 63.8871C10.2314 63.0171 10.1441 62.9372 9.19567 62.9372C8.20934 62.9372 8.15992 62.8832 8.15992 61.8052C8.15992 60.7632 8.08949 60.6732 7.27214 60.6732C6.45774 60.6732 6.38435 60.7651 6.38435 61.7858ZM23.8956 64.6646C29.528 67.1463 34.8704 68.125 43.9835 68.3452C49.454 68.4775 51.7839 68.3983 54.8091 67.9775C62.4888 66.9092 68.0703 65.0773 71.6575 62.4485L73.56 61.0542V64.5094C73.56 67.9034 73.5434 67.9866 72.6338 69.1929C71.727 70.3951 69.7257 71.9932 69.127 71.9932C68.961 71.9932 68.8252 71.3382 68.8252 70.5378C68.8252 69.1363 68.7923 69.0823 67.9374 69.0823H67.0496V71.1704V73.2587L64.6736 74.0789C63.3668 74.5301 61.7688 74.9917 61.1225 75.1049L59.9473 75.3102V73.49C59.9473 71.683 59.9408 71.6697 59.0595 71.6697H58.1718V73.7326V75.7957L55.9402 76.1583C54.713 76.3578 53.1149 76.5211 52.389 76.5211H51.0695V74.7423C51.0695 72.9816 51.0606 72.9634 50.1817 72.9634H49.2939V74.904V76.8446H45.7428H42.1916V74.904V72.9634H41.3039C40.4223 72.9634 40.4161 72.9761 40.4161 74.7902V76.6165L37.9747 76.4057C36.632 76.2899 35.034 76.1036 34.4235 75.9923L33.3138 75.7896V73.7296V71.6697H32.426C31.5447 71.6697 31.5382 71.683 31.5382 73.491V75.3122L30.5075 75.1291C29.9405 75.0285 28.3425 74.5683 26.9564 74.1061L24.436 73.2662V71.1743V69.0823H23.5482C22.6932 69.0823 22.6604 69.1363 22.6604 70.5378C22.6604 71.3382 22.5533 71.9932 22.4225 71.9932C21.8475 71.9932 19.4324 70.0326 18.7846 69.04C18.1593 68.082 18.0614 67.5273 17.9729 64.4512L17.872 60.9517L19.6052 62.2448C20.5584 62.956 22.4893 64.045 23.8956 64.6646Z" fill="#D62828"/>
</svg>
