<svg width="73" height="81" viewBox="0 0 73 81" fill="none" xmlns="http://www.w3.org/2000/svg">
<path fill-rule="evenodd" clip-rule="evenodd" d="M12.1007 0.303097C11.621 0.680171 11.4737 1.68108 11.4538 4.69506L11.4397 6.85887H7.65449C2.72702 6.85887 3.12017 6.53275 3.24702 10.5137C3.35014 13.7519 3.55471 14.9349 4.4788 17.6371C6.21629 22.7174 9.57484 26.947 14.1817 29.8562C14.9032 30.3118 15.6251 30.7251 15.7857 30.7746C15.9466 30.8243 16.4824 31.5583 16.9765 32.406C19.5437 36.8098 23.8166 41.0066 27.6739 42.913C28.3216 43.2331 29.4572 43.7266 30.1974 44.0098L31.5432 44.5247L31.5871 51.6576L31.6309 58.7903H27.772H23.9131L23.5646 59.2206C23.2377 59.624 23.2158 59.8593 23.2158 62.9767V66.3024H20.0516C17.5853 66.3024 16.8153 66.3535 16.5608 66.5341C16.2494 66.7549 16.2321 67.0435 16.1861 72.7398L16.1382 78.7137H8.40547C0.897173 78.7137 0.663165 78.7232 0.336461 79.0403C0.149557 79.2218 0 79.5846 0 79.8569C0 80.1291 0.149557 80.492 0.336461 80.6734C0.670735 80.9979 0.897172 81 36.506 81C72.1149 81 72.3413 80.9979 72.6756 80.6734C73.1081 80.2535 73.1081 79.4602 72.6756 79.0403C72.3487 78.723 72.1149 78.7137 64.4323 78.7137H56.5255V72.753C56.5255 67.01 56.5132 66.7804 56.189 66.4657C55.8761 66.162 55.6283 66.1391 52.6562 66.1391H49.4598V62.7409C49.4598 60.0659 49.409 59.2752 49.2212 59.0256C49.0004 58.7319 48.6952 58.7026 45.0575 58.627L41.1324 58.5454L41.0885 51.72C41.0617 47.565 41.108 44.7794 41.2067 44.6005C41.2991 44.4329 42.0121 44.0829 42.8618 43.7878C45.6532 42.8186 48.2867 41.134 50.8095 38.7036C52.7043 36.8784 54.2628 34.8872 55.6986 32.4572C56.2693 31.4915 56.7982 30.7016 56.874 30.7016C56.9501 30.7016 57.8301 30.172 58.8297 29.5247C65.6441 25.1118 69.6475 17.5695 69.6475 9.14418C69.6475 7.78678 69.6123 7.62641 69.2345 7.25979C68.8216 6.85887 68.8211 6.85887 65.1969 6.85887H61.5724L61.566 6.40978C61.5625 6.1627 61.4932 4.79615 61.4119 3.37293C61.2777 1.01805 61.23 0.749903 60.8843 0.392589L60.5043 0H36.4953C13.3572 0 12.4723 0.0109415 12.1007 0.303097ZM59.1018 2.51116C59.3257 3.07735 59.4142 10.8316 59.2241 13.2278C58.4351 23.1781 55.2249 31.1881 49.8696 36.5687C47.244 39.2068 44.4546 40.9742 41.3718 41.9529C40.195 42.3266 39.3594 42.9947 39.0398 43.8176C38.9238 44.1163 38.8613 46.7901 38.8613 51.4521V58.627H36.5902H34.319L34.318 51.6457C34.3175 47.2878 34.2511 44.4331 34.1411 44.0488C33.9087 43.2365 33.0253 42.402 32.0193 42.0447C28.5208 40.802 26.0455 39.3186 23.7471 37.0875C18.0537 31.5608 14.6991 23.4746 13.7811 13.0645C13.5942 10.9453 13.6877 3.07392 13.9064 2.52096C14.043 2.17541 58.9653 2.16577 59.1018 2.51116ZM36.1134 8.51267C35.8839 8.64218 32.8225 14.3297 32.4397 15.3374C32.4093 15.4176 30.6149 15.7442 28.4522 16.0631C24.1773 16.6937 23.8887 16.7985 23.8887 17.7192C23.8887 18.1481 24.0755 18.4102 24.9402 19.1959C25.5186 19.7212 26.8321 20.94 27.8593 21.9041L29.7272 23.6571L29.0817 27.3834C28.7265 29.433 28.435 31.2051 28.4335 31.3214C28.4295 31.6636 29.2247 32.3347 29.6343 32.3347C29.8419 32.3347 31.5875 31.5268 33.5136 30.5393L37.0151 28.7439L40.283 30.5545C43.131 32.1323 43.6178 32.3508 44.0717 32.254C44.3582 32.1929 44.7105 31.9681 44.8548 31.7544C45.0971 31.3953 45.0666 31.0728 44.4554 27.5202L43.7938 23.6745L45.5742 22.0031C49.7539 18.0793 49.628 18.2131 49.628 17.6905C49.628 16.8057 49.3023 16.6875 45.1477 16.0651C43.0317 15.7481 41.2491 15.4393 41.1862 15.3789C41.1233 15.3186 40.3131 13.7855 39.3858 11.9722C38.4097 10.0634 37.5593 8.60217 37.3664 8.5019C36.9478 8.28437 36.5111 8.28813 36.1134 8.51267ZM11.272 10.5741C11.2738 14.8686 12.3135 20.8673 13.8092 25.2127C14.0841 26.0111 14.272 26.7003 14.2269 26.744C14.1028 26.8644 12.6212 25.6143 11.4612 24.4107C7.86209 20.6757 5.55161 15.1303 5.55161 10.2266V9.14516H8.41153H11.2714L11.272 10.5741ZM67.4605 10.2266C67.4605 11.8472 66.995 14.5748 66.4223 16.3106C65.4696 19.1972 64.2469 21.3874 62.2761 23.7374C61.3306 24.8645 58.9147 27.0329 58.7655 26.8882C58.7214 26.8453 58.9875 25.9038 59.3571 24.7958C60.8007 20.467 61.7349 14.8898 61.7391 10.5741L61.7406 9.14516H64.6005H67.4605V10.2266ZM38.102 15.0201C38.8365 16.4548 39.5199 17.6595 39.6207 17.697C39.7214 17.7346 41.087 17.9299 42.655 18.1311C44.2233 18.3323 45.5664 18.549 45.6396 18.6129C45.713 18.6765 44.8292 19.6053 43.6759 20.6766C42.4885 21.7794 41.5326 22.8033 41.472 23.0372C41.3857 23.3709 41.9503 26.9465 42.3404 28.5378C42.3901 28.74 42.3605 28.9052 42.2747 28.9052C42.1889 28.9052 40.9936 28.3173 39.6183 27.5988C38.243 26.8802 36.9793 26.2923 36.81 26.2923C36.6406 26.2923 35.2837 26.8846 33.7943 27.6086C32.3051 28.3324 31.047 28.8861 30.9983 28.8391C30.9499 28.7919 31.121 27.6301 31.3785 26.2572C31.6361 24.8843 31.8479 23.5539 31.8492 23.3007C31.8513 22.9274 31.4423 22.4422 29.687 20.7342C28.4962 19.5759 27.5563 18.6006 27.5981 18.5668C27.6398 18.5332 28.9609 18.34 30.5338 18.1375C32.5333 17.8803 33.4881 17.6882 33.7074 17.4991C33.8798 17.3505 34.5805 16.1448 35.2645 14.8201C35.9485 13.4953 36.5663 12.4113 36.6374 12.4113C36.7086 12.4113 37.3677 13.5853 38.102 15.0201ZM47.1046 63.6907V66.3049L36.464 66.2627L25.8234 66.2208L25.7771 63.6487L25.7307 61.0766H36.4177H47.1046V63.6907ZM54.3385 73.5696V78.7137H36.5902H18.8418V73.5696V68.4254H36.5902H54.3385V73.5696Z" fill="#D62828"/>
</svg>
