<svg width="76" height="76" viewBox="0 0 76 76" fill="none" xmlns="http://www.w3.org/2000/svg">
<path fill-rule="evenodd" clip-rule="evenodd" d="M32.2719 0.103023C29.3797 0.332172 25.1955 1.30066 22.7561 2.30549L22.3536 2.47132L22.6661 3.38808C22.8379 3.89224 22.9968 4.32817 23.019 4.35689C23.0413 4.38545 23.7745 4.15995 24.6484 3.85574C30.0107 1.98843 36.2593 1.63471 41.9282 2.87757C52.6119 5.22001 61.9953 13.5049 66.3191 24.4132C67.6981 27.8923 68.6059 31.663 68.9805 35.4682C69.2974 38.6876 69.0377 43.5404 68.3671 46.9244C68.1662 47.9393 68.2603 48.0461 66.6856 45.0165L65.5393 42.811L64.8722 43.2231C64.5054 43.4499 64.1294 43.6973 64.0366 43.7728C63.9183 43.8695 64.4157 44.9603 65.7066 47.4351C67.6831 51.2245 67.974 51.6739 68.45 51.6739C68.6939 51.6739 73.8735 48.6358 75.3788 47.6098L75.7045 47.3878L75.2533 46.5555C75.0052 46.0977 74.7799 45.6973 74.7527 45.6659C74.7254 45.6343 73.6994 46.224 72.4725 46.976C71.2457 47.7281 70.2139 48.3131 70.1799 48.2763C70.1458 48.2395 70.2238 47.6481 70.3529 46.9621C71.2507 42.197 71.2523 35.8123 70.3566 31.1647C68.8728 23.4639 65.4666 16.7508 60.2235 11.193C58.2528 9.10397 56.8461 7.86396 54.7479 6.36623C48.244 1.72389 40.1798 -0.52333 32.2719 0.103023ZM10.0562 4.72156C6.38928 5.38092 3.14338 8.22117 1.73094 12.0067C0.699061 14.7721 0.699061 17.9583 1.73094 20.7236C2.87511 23.79 5.25302 26.3207 8.02278 27.4196C8.48646 27.6037 8.8657 27.8133 8.8657 27.8857C8.8657 27.958 8.72864 28.3936 8.56108 28.8538C7.61657 31.4476 6.95997 35.6326 6.95997 39.058C6.95997 47.3537 9.93995 54.9602 15.4836 60.815C20.1467 65.7396 25.9774 68.65 32.5177 69.3173L34.3732 69.5065V71.3863C34.3732 72.6149 34.4424 73.4455 34.5731 73.7841C34.8281 74.4446 35.548 75.1018 36.2468 75.3119C36.9972 75.5375 62.0942 75.5375 62.8446 75.3119C63.1444 75.2217 63.5921 74.9637 63.8394 74.7383C64.752 73.9071 64.7183 74.3151 64.7183 64.1234C64.7183 53.7645 64.7534 54.1455 63.7201 53.2916C63.2492 52.9025 63.067 52.8592 61.6883 52.81C60.8553 52.7801 60.1738 52.6998 60.1738 52.6314C60.1738 52.563 60.3974 51.9759 60.6706 51.3267C60.9439 50.6776 61.4017 49.3626 61.6879 48.4042C64.934 37.5341 62.3065 25.7376 54.831 17.6214C46.6587 8.74818 34.5428 6.25626 23.7723 11.2334C22.8198 11.6735 22.0213 12.0085 21.9979 11.9777C21.9745 11.9471 21.6996 11.3863 21.3869 10.7317C20.6903 9.27297 18.7512 7.08225 17.4147 6.24436C15.1625 4.83217 12.5026 4.28167 10.0562 4.72156ZM14.5943 7.18016C18.6005 8.52967 21.2022 12.8959 20.7298 17.476C20.3293 21.36 17.7781 24.5985 14.2164 25.7445C13.0096 26.1326 10.7018 26.1356 9.53359 25.7505C7.37513 25.0388 5.52584 23.5951 4.38108 21.7281C3.14382 19.7104 2.61329 16.8278 3.05806 14.5402C4.17614 8.79103 9.42863 5.43995 14.5943 7.18016ZM10.918 10.0007V11.0154L10.2292 11.3893C9.85038 11.5949 9.33906 12.0375 9.09307 12.373C8.67703 12.9402 8.64581 13.0731 8.64581 14.2773C8.64581 15.3794 8.69668 15.6489 8.98796 16.0911C9.47246 16.8265 10.3334 17.2488 11.6192 17.3816C12.5139 17.4741 12.7681 17.5628 12.9904 17.8602C13.3434 18.3322 13.3355 18.6832 12.9597 19.2002C12.6896 19.572 12.5546 19.6184 11.7429 19.6184C11.2284 19.6184 10.7533 19.5352 10.6542 19.4279C10.5574 19.3232 10.4782 18.9304 10.4782 18.5551V17.8728H9.43317H8.3881L8.49145 18.8646C8.64845 20.3721 9.37483 21.387 10.4659 21.6231C10.9142 21.7202 10.918 21.7294 10.918 22.7327V23.7443H11.8709H12.8238V22.7369V21.7296L13.3994 21.4485C15.5067 20.4199 15.7791 17.3503 13.8908 15.9105C13.4113 15.5449 13.0599 15.4302 12.0953 15.325C11.4357 15.2531 10.8021 15.1096 10.6871 15.0065C10.5722 14.9032 10.4782 14.5828 10.4782 14.2943C10.4782 13.5303 11.0262 13.112 12.0267 13.112C12.9756 13.112 13.2635 13.3732 13.2635 14.2341V14.8576H14.2164H15.1693V14.0591C15.1693 13.6198 15.0801 13.0297 14.9712 12.7474C14.7178 12.0908 13.8551 11.269 13.2744 11.1309C12.8283 11.0249 12.8238 11.0135 12.8238 10.005V8.98606H11.8709H10.918V10.0007ZM39.019 11.1384C42.879 11.7541 46.9152 13.5532 50.2928 16.1635C51.0298 16.733 51.35 17.076 51.2962 17.238C51.0322 18.0346 50.1199 19.3392 49.0795 20.4082C47.5613 21.9682 45.781 22.9766 43.7398 23.4325C42.1062 23.7975 41.3731 23.8145 40.0802 23.5179C37.8992 23.0173 36.4069 21.744 35.4156 19.5381C34.6359 17.8028 33.9239 17.0193 32.803 16.664C32.0577 16.4279 31.7581 16.4176 30.3418 16.5796C29.4549 16.681 28.5777 16.7186 28.3923 16.663C27.9893 16.5424 27.4672 15.4919 26.8857 13.6308L26.4774 12.3244L27.4391 12.0029C31.0043 10.8108 35.0649 10.5077 39.019 11.1384ZM25.0704 14.4212C25.9116 17.1978 26.8735 18.5478 28.16 18.7567C28.5449 18.819 29.5077 18.794 30.2997 18.7008C31.7349 18.532 32.4207 18.6124 32.8523 19.0001C32.9676 19.1037 33.3693 19.8323 33.7446 20.6191C35.0397 23.3336 36.9811 24.9813 39.5773 25.5694C44.1408 26.603 49.6159 24.0239 52.3076 19.5726L52.959 18.4953L54.1535 19.89C58.173 24.5832 60.748 31.0474 61.0145 37.114L61.0965 38.9786L57.3734 39.0183C52.2442 39.0729 51.0122 39.0242 50.068 38.7289C48.9441 38.3772 47.2519 37.3997 46.0274 36.3944C45.4631 35.9311 44.2427 34.9266 43.3154 34.1622C41.4261 32.6045 39.5046 31.4829 38.2373 31.1982C37.2042 30.966 35.3065 31.0747 34.2769 31.4251C32.5066 32.0275 31.2947 33.5449 31.2947 35.1594C31.2947 37.5596 32.9412 40.3286 36.6958 44.2421L38.6244 46.2522V49.5186V52.7847L37.415 52.7873C35.9564 52.7905 35.2209 53.1572 34.7084 54.1368C34.3812 54.7622 34.378 54.8298 34.3755 60.9876C34.3742 64.4082 34.3198 67.2426 34.2546 67.2862C34.0562 67.4189 31.1619 67.0744 29.6821 66.7418C28.3031 66.4318 26.4796 65.851 26.2807 65.6582C26.224 65.6033 26.3808 65.2372 26.6293 64.8448C27.4149 63.604 28.4805 61.0135 28.8627 59.4156C29.8858 55.1376 29.5864 50.9715 28.0042 47.4686C26.4213 43.9641 23.9459 41.9525 20.1747 41.106C19.2569 40.8999 18.2995 40.6011 18.0471 40.4419C17.3005 39.9712 16.9614 39.0945 16.6427 36.8101C16.485 35.6799 16.2287 34.4342 16.0733 34.0418C15.4859 32.5583 14.3824 31.8618 12.0791 31.5206C11.4002 31.4202 10.6345 31.3051 10.3777 31.265L9.91063 31.1922L10.1279 30.4001C10.2474 29.9645 10.4672 29.2998 10.6165 28.9227L10.888 28.2373L12.4055 28.1423C16.4822 27.8873 19.9428 25.3923 21.6973 21.4436C22.4599 19.7272 22.7047 18.4245 22.6994 16.1083L22.695 14.1056L23.5864 13.6184C24.0768 13.3504 24.5222 13.1268 24.576 13.1215C24.6298 13.1163 24.8523 13.7012 25.0704 14.4212ZM38.7349 33.5666C39.8272 34.0343 41.0443 34.9001 43.5375 36.9836C46.0252 39.0624 47.5784 40.069 49.2525 40.6876L50.4253 41.121L55.7437 41.1092L61.0622 41.0975L60.9704 42.0614C60.6961 44.9457 59.6434 48.9073 58.5007 51.3565L57.8713 52.7054L49.1858 52.7463L40.5004 52.7873L40.552 49.043L40.6034 45.2987L39.3574 44.0942C35.006 39.8882 32.663 36.1803 33.364 34.6091C33.9558 33.2829 36.7876 32.7332 38.7349 33.5666ZM12.548 33.7277C14.1957 34.1289 14.307 34.3027 14.7264 37.1326C15.1089 39.7137 15.4353 40.6365 16.2957 41.5678C17.0889 42.4265 17.892 42.7964 19.7872 43.1763C23.4237 43.9052 25.9545 46.4811 27.0487 50.5674C27.4451 52.0479 27.6037 55.5431 27.3482 57.1687C26.963 59.6207 25.9551 62.306 24.757 64.0726L24.2382 64.8379L23.1121 64.2233C14.1566 59.336 8.44893 48.7705 8.91701 37.9471C8.99676 36.1046 9.19363 34.2642 9.3845 33.5766C9.44197 33.3695 9.63782 33.3499 10.6616 33.4475C11.3267 33.5109 12.1755 33.6369 12.548 33.7277ZM62.6366 55.0382C62.7334 55.1429 62.8125 55.4642 62.8125 55.7523V56.2759H49.5457H36.2789V55.7523C36.2789 55.4642 36.3581 55.1429 36.4548 55.0382C36.7097 54.7622 62.3817 54.7622 62.6366 55.0382ZM62.8125 59.7671V61.0367H49.5457H36.2789V59.7671V58.4976H49.5457H62.8125V59.7671ZM62.8125 68.0667C62.8125 71.5948 62.7658 72.9256 62.6366 73.0654C62.3817 73.3414 36.7097 73.3414 36.4548 73.0654C36.3257 72.9256 36.2789 71.5948 36.2789 68.0667V63.2583H49.5457H62.8125V68.0667ZM39.2108 66.5115V67.543H45.1479H51.085V66.5115V65.48H45.1479H39.2108V66.5115ZM39.2108 70.1614V71.1929H42.0694H44.928V70.1614V69.1299H42.0694H39.2108V70.1614Z" fill="#D11919"/>
</svg>
