<svg width="78" height="84" viewBox="0 0 78 84" fill="none" xmlns="http://www.w3.org/2000/svg">
<path fill-rule="evenodd" clip-rule="evenodd" d="M38.5305 0.237951C38.4277 0.371991 38.2452 1.04545 38.1252 1.73455C37.8652 3.22447 37.6549 3.70135 36.8307 4.66927C36.0413 5.59648 35.0744 6.12564 33.769 6.34486C32.6271 6.53656 32.2113 6.88282 32.2113 7.64195C32.2113 8.28169 32.654 8.62665 33.6751 8.783C34.921 8.97356 35.9712 9.50402 36.6893 10.3052C37.5069 11.2172 37.9197 12.1327 38.1336 13.5077C38.3339 14.7943 38.6069 15.1953 39.2823 15.1953C39.9576 15.1953 40.2307 14.7943 40.4309 13.5077C40.8495 10.8185 42.4126 9.162 44.8895 8.783C45.9105 8.62665 46.3533 8.28169 46.3533 7.64195C46.3533 6.88282 45.9375 6.53656 44.7956 6.34486C43.4901 6.12564 42.5232 5.59648 41.7338 4.66927C40.9097 3.70135 40.6993 3.22447 40.4394 1.73455C40.3193 1.04545 40.1368 0.371991 40.0341 0.237951C39.7908 -0.0793169 38.7738 -0.0793169 38.5305 0.237951ZM39.7891 5.84567C40.0265 6.19323 40.5059 6.70871 40.8542 6.99129L41.4875 7.50514L40.3849 8.6988L39.2823 9.89246L38.1797 8.6988L37.077 7.50514L37.7104 6.99129C38.0587 6.70871 38.538 6.19323 38.7754 5.84567C39.0128 5.49811 39.2409 5.21374 39.2823 5.21374C39.3237 5.21374 39.5517 5.49811 39.7891 5.84567ZM5.99474 17.2176C5.86505 17.3745 5.68812 17.9211 5.60147 18.4323C5.23693 20.5864 4.09609 21.7939 2.17142 22.0628C1.09662 22.2128 0.731934 22.6952 0.966482 23.6566C1.08428 24.1399 1.55518 24.4234 2.24438 24.4262C2.89251 24.4286 4.10722 25.133 4.70811 25.8547C5.24791 26.5029 5.47464 27.1055 5.65954 28.3832C5.82157 29.5028 6.66633 29.9798 7.37419 29.3513C7.58873 29.1608 7.74053 28.7608 7.832 28.1448C8.07979 26.4772 8.80299 25.3969 10.0955 24.7635C10.4678 24.5811 11.0189 24.4301 11.32 24.4281C12.051 24.4234 12.5527 23.969 12.5527 23.312C12.5527 22.5563 12.153 22.1815 11.211 22.0542C9.45894 21.8172 8.12913 20.411 7.84027 18.4901C7.76174 17.967 7.58331 17.4026 7.44384 17.2359C7.12144 16.8502 6.30721 16.8399 5.99474 17.2176ZM71.1207 17.2359C70.9812 17.4026 70.8028 17.967 70.7243 18.4901C70.4354 20.411 69.1056 21.8172 67.3535 22.0542C66.4116 22.1815 66.0118 22.5563 66.0118 23.312C66.0118 23.969 66.5136 24.4234 67.2446 24.4281C67.5456 24.4301 68.0967 24.5811 68.4691 24.7635C69.7616 25.3969 70.4848 26.4772 70.7326 28.1448C70.824 28.7608 70.9758 29.1608 71.1904 29.3513C71.8982 29.9798 72.743 29.5028 72.905 28.3832C73.0899 27.1055 73.3166 26.5029 73.8564 25.8547C74.4573 25.133 75.6721 24.4286 76.3202 24.4262C77.0094 24.4234 77.4803 24.1399 77.5981 23.6566C77.8326 22.6952 77.4679 22.2128 76.3931 22.0628C74.4685 21.7939 73.3276 20.5864 72.9631 18.4323C72.8764 17.9211 72.6995 17.3745 72.5698 17.2176C72.2573 16.8399 71.4431 16.8502 71.1207 17.2359ZM7.42053 22.5332L8.10942 23.2475L7.40909 23.9943L6.70876 24.741L6.04228 24.0089L5.37595 23.2768L6.03686 22.5478C6.40034 22.1467 6.70545 21.8187 6.71478 21.8187C6.7241 21.8187 7.0417 22.1402 7.42053 22.5332ZM72.5277 22.5478L73.1886 23.2768L72.5223 24.0089L71.8558 24.741L71.1541 23.9928L70.4524 23.2446L71.078 22.5569C71.4222 22.1786 71.7404 21.8577 71.7852 21.8439C71.8301 21.8301 72.1642 22.1467 72.5277 22.5478ZM20.4011 22.3714C18.9216 22.8825 17.6661 23.9503 16.9469 25.3093C16.754 25.6738 15.3274 29.8727 13.7766 34.6405C12.226 39.4081 10.9118 43.2789 10.8566 43.2417C10.8012 43.2047 10.592 42.4187 10.3916 41.4949C9.84092 38.958 10.0692 39.0827 5.98165 39.0827C1.51802 39.0827 1.8961 38.7361 1.8961 42.8284C1.8961 46.9159 1.53141 46.5746 5.89965 46.5746C7.71089 46.5746 9.1928 46.6193 9.1928 46.674C9.1928 46.7286 8.2704 48.1761 7.1431 49.8906C4.8885 53.3195 4.59001 53.9265 4.37788 55.5142C4.18801 56.9345 4.19192 70.9339 4.38254 72.3611C4.56684 73.7411 5.13523 75.0256 5.96495 75.9367L6.59999 76.634L6.6567 78.9905C6.72034 81.6311 6.89336 82.1785 7.866 82.8129C8.33374 83.1179 8.63208 83.1386 12.5779 83.1386C17.2547 83.1386 17.3907 83.1116 18.0939 82.0425C18.3958 81.5834 18.4506 81.2747 18.4984 79.7599L18.5538 78.0082H39.1318H59.7099L59.7652 79.7599C59.8131 81.2747 59.8678 81.5834 60.1698 82.0425C60.873 83.1116 61.009 83.1386 65.6858 83.1386C69.6316 83.1386 69.9299 83.1179 70.3977 82.8129C71.3614 82.1842 71.5292 81.6521 71.6008 78.9962L71.6647 76.6239L72.307 75.9144C73.1442 74.9898 73.6967 73.7426 73.8811 72.3611C74.0717 70.9339 74.0757 56.9345 73.8858 55.5142C73.6737 53.9265 73.3752 53.3195 71.1206 49.8906C69.9933 48.1761 69.0709 46.7286 69.0709 46.674C69.0709 46.6193 70.5528 46.5746 72.364 46.5746C76.7323 46.5746 76.3676 46.9159 76.3676 42.8287C76.3676 38.7361 76.7456 39.0827 72.282 39.0827C68.1945 39.0827 68.4227 38.958 67.8721 41.4949C67.6717 42.4187 67.4624 43.2047 67.4071 43.2417C67.3519 43.2789 66.0377 39.4081 64.487 34.6405C62.9362 29.8727 61.5097 25.6738 61.3168 25.3093C60.7681 24.2726 59.757 23.2798 58.69 22.7299L57.7121 22.2258L39.3575 22.1947C24.8222 22.17 20.8777 22.2068 20.4011 22.3714ZM57.3715 24.6182C58.2991 24.919 59.3669 26.0611 59.7475 27.1594C60.2196 28.5217 65.3097 44.1354 65.3097 44.2214C65.3097 44.2616 63.6818 44.2945 61.6922 44.2945H58.0745L57.7053 44.6943C57.2541 45.1826 57.2383 45.582 57.6478 46.1455L57.9596 46.5746H62.1358H66.312L68.8181 50.378C70.1965 52.4697 71.4266 54.4462 71.5516 54.7702C71.7433 55.2666 71.7789 56.5365 71.7789 62.8563V70.3534H61.4056H51.0322L50.9871 64.9381L50.942 59.5227L50.4783 58.4636C49.6564 56.5862 48.0824 55.2627 46.22 54.8832C45.1509 54.6653 33.1127 54.6653 32.0437 54.8832C30.1813 55.2627 28.6073 56.5862 27.7854 58.4636L27.3217 59.5227L27.2766 64.9381L27.2314 70.3534H16.8581H6.48474V62.8563C6.48474 56.5365 6.5204 55.2666 6.71207 54.7702C6.83709 54.4462 8.06715 52.4697 9.44555 50.378L11.9517 46.5746H32.9889C53.8256 46.5746 54.029 46.5716 54.327 46.2489C54.7275 45.8154 54.714 45.0455 54.2986 44.6266C53.9706 44.2958 53.8921 44.2945 33.4616 44.2945C22.1824 44.2945 12.954 44.2616 12.954 44.2214C12.954 44.1354 18.0441 28.5217 18.5162 27.1594C18.8794 26.1115 19.9514 24.9264 20.8033 24.6312C21.5561 24.3705 56.569 24.3579 57.3715 24.6182ZM21.0029 26.3563C20.7547 26.5223 20.4279 26.8089 20.2766 26.9932C19.9316 27.4138 15.5116 40.9148 15.5116 41.5482C15.5116 41.8046 15.647 42.1609 15.8125 42.3401C16.1108 42.663 16.3139 42.6658 39.1318 42.6658C61.9497 42.6658 62.1528 42.663 62.4512 42.3401C62.6167 42.1609 62.7521 41.8046 62.7521 41.5482C62.7521 40.7966 58.3137 27.3827 57.9104 26.915C57.1247 26.0045 58.1883 26.0532 39.1017 26.0539C22.1838 26.0544 21.4356 26.0669 21.0029 26.3563ZM58.263 34.2781C59.3177 37.5029 60.1838 40.1964 60.1875 40.2635C60.1913 40.3306 50.7163 40.3857 39.1318 40.3857C27.5474 40.3857 18.0692 40.3528 18.0692 40.3124C18.0692 40.2352 21.5379 29.5525 21.8137 28.7806L21.9739 28.3321L39.1597 28.3735L56.3454 28.4148L58.263 34.2781ZM8.29387 42.0551C8.38519 42.4357 8.52285 43.0038 8.59973 43.3173C8.85008 44.3368 8.94501 44.2945 6.40952 44.2945H4.07758V42.8287V41.3629H6.10276H8.12808L8.29387 42.0551ZM74.1861 42.8287V44.2945H71.8541C69.3187 44.2945 69.4136 44.3368 69.6639 43.3173C69.7408 43.0038 69.8785 42.4357 69.9698 42.0551L70.1356 41.3629H72.1609H74.1861V42.8287ZM13.1329 53.7472C12.6826 54.2013 12.6853 55.0985 13.138 55.4417C13.4202 55.6559 14.0971 55.6953 17.49 55.6953H21.5077L21.8194 55.2661C22.2289 54.7026 22.2131 54.3032 21.7619 53.815L21.3927 53.4151H17.4274C13.6448 53.4151 13.4468 53.4304 13.1329 53.7472ZM56.5017 53.815C56.0505 54.3032 56.0347 54.7026 56.4443 55.2661L56.756 55.6953H60.7737C64.1666 55.6953 64.8434 55.6559 65.1257 55.4417C65.5784 55.0985 65.5811 54.2013 65.1308 53.7472C64.8168 53.4304 64.6188 53.4151 60.8363 53.4151H56.8709L56.5017 53.815ZM46.7481 57.4389C47.463 57.853 48.119 58.557 48.4985 59.318L48.763 59.8484L43.9475 59.8914C41.2989 59.915 36.9648 59.915 34.3162 59.8914L29.5006 59.8484L29.7651 59.318C30.3066 58.2326 31.2354 57.4328 32.2865 57.1466C32.5347 57.079 35.7505 57.0363 39.4327 57.0516C46.0234 57.0792 46.1373 57.0852 46.7481 57.4389ZM15.4364 57.5505C10.8327 58.5093 8.90559 62.455 11.6386 65.3263C13.7733 67.569 18.5417 68.1283 21.6193 66.4969C24.6934 64.8674 25.3867 61.7698 23.1891 59.4838C21.5791 57.809 18.2187 56.9712 15.4364 57.5505ZM59.1413 57.5085C55.8899 58.0837 53.8066 60.0258 53.8175 62.4717C53.8299 65.3101 56.8016 67.4127 60.8098 67.4194C63.9627 67.4247 66.5739 66.1076 67.5602 64.0148C67.972 63.1408 67.969 61.7892 67.553 60.8313C66.4839 58.3691 62.7078 56.8774 59.1413 57.5085ZM19.904 60.1159C20.9816 60.4771 22.0562 61.3237 22.2929 61.9975C22.6172 62.9208 21.6951 64.0437 20.0784 64.6946C18.7987 65.2096 15.9565 65.2057 14.7514 64.6872C11.9627 63.4877 11.7621 61.587 14.2946 60.3566C15.951 59.5518 17.9645 59.4655 19.904 60.1159ZM62.9025 59.9644C63.8908 60.2224 64.9131 60.8185 65.3653 61.4002C66.2659 62.5587 65.5633 63.805 63.5123 64.6872C62.3072 65.2057 59.465 65.2096 58.1852 64.6946C57.0679 64.2447 56.3086 63.6193 56.0421 62.9292C55.771 62.2268 55.9339 61.7678 56.7089 61.0497C58.0646 59.7935 60.5676 59.3549 62.9025 59.9644ZM48.9109 63.6758V65.1416H39.1318H29.3528V63.6758V62.21H39.1318H48.9109V63.6758ZM48.9109 68.8876V70.3534H39.1318H29.3528V68.8876V67.4218H39.1318H48.9109V68.8876ZM71.5549 72.7994C71.8278 73.2774 70.2326 75.0551 69.2427 75.3761C68.405 75.648 9.85868 75.648 9.02099 75.3761C8.03104 75.0551 6.43585 73.2774 6.70876 72.7994C6.77255 72.6877 17.3558 72.6336 39.1318 72.6336C60.9079 72.6336 71.4911 72.6877 71.5549 72.7994ZM16.4143 79.3926V80.777H12.6531H8.8919V79.3926V78.0082H12.6531H16.4143V79.3926ZM69.3718 79.3926V80.777H65.6106H61.8494V79.3926V78.0082H65.6106H69.3718V79.3926Z" fill="#D62828"/>
</svg>
